<svg id="SvgjsSvg1001" width="288" height="288" xmlns="http://www.w3.org/2000/svg" version="1.1" xmlns:xlink="http://www.w3.org/1999/xlink" xmlns:svgjs="http://svgjs.com/svgjs"><defs id="SvgjsDefs1002"></defs><g id="SvgjsG1008"><svg xmlns="http://www.w3.org/2000/svg" width="288" height="288" display="block" preserveAspectRatio="xMidYMid" viewBox="0 0 100 100" style="margin:auto;background:0 0"><rect width="8" height="12" x="46" y="24" fill="#6e85b2" rx="4" ry="6" class="color9fd18b svgShape"><animate attributeName="opacity" begin="-0.36666666666666664s" dur="0.4s" keyTimes="0;1" repeatCount="indefinite" values="1;0"></animate></rect><rect width="8" height="12" x="46" y="24" fill="#6e85b2" rx="4" ry="6" transform="rotate(30 50 50)" class="color9fd18b svgShape"><animate attributeName="opacity" begin="-0.3333333333333333s" dur="0.4s" keyTimes="0;1" repeatCount="indefinite" values="1;0"></animate></rect><rect width="8" height="12" x="46" y="24" fill="#6e85b2" rx="4" ry="6" transform="rotate(60 50 50)" class="color9fd18b svgShape"><animate attributeName="opacity" begin="-0.3s" dur="0.4s" keyTimes="0;1" repeatCount="indefinite" values="1;0"></animate></rect><rect width="8" height="12" x="46" y="24" fill="#6e85b2" rx="4" ry="6" transform="rotate(90 50 50)" class="color9fd18b svgShape"><animate attributeName="opacity" begin="-0.26666666666666666s" dur="0.4s" keyTimes="0;1" repeatCount="indefinite" values="1;0"></animate></rect><rect width="8" height="12" x="46" y="24" fill="#6e85b2" rx="4" ry="6" transform="rotate(120 50 50)" class="color9fd18b svgShape"><animate attributeName="opacity" begin="-0.23333333333333334s" dur="0.4s" keyTimes="0;1" repeatCount="indefinite" values="1;0"></animate></rect><rect width="8" height="12" x="46" y="24" fill="#6e85b2" rx="4" ry="6" transform="rotate(150 50 50)" class="color9fd18b svgShape"><animate attributeName="opacity" begin="-0.2s" dur="0.4s" keyTimes="0;1" repeatCount="indefinite" values="1;0"></animate></rect><rect width="8" height="12" x="46" y="24" fill="#6e85b2" rx="4" ry="6" transform="rotate(180 50 50)" class="color9fd18b svgShape"><animate attributeName="opacity" begin="-0.16666666666666666s" dur="0.4s" keyTimes="0;1" repeatCount="indefinite" values="1;0"></animate></rect><rect width="8" height="12" x="46" y="24" fill="#6e85b2" rx="4" ry="6" transform="rotate(210 50 50)" class="color9fd18b svgShape"><animate attributeName="opacity" begin="-0.13333333333333333s" dur="0.4s" keyTimes="0;1" repeatCount="indefinite" values="1;0"></animate></rect><rect width="8" height="12" x="46" y="24" fill="#6e85b2" rx="4" ry="6" transform="rotate(240 50 50)" class="color9fd18b svgShape"><animate attributeName="opacity" begin="-0.1s" dur="0.4s" keyTimes="0;1" repeatCount="indefinite" values="1;0"></animate></rect><rect width="8" height="12" x="46" y="24" fill="#6e85b2" rx="4" ry="6" transform="rotate(270 50 50)" class="color9fd18b svgShape"><animate attributeName="opacity" begin="-0.06666666666666667s" dur="0.4s" keyTimes="0;1" repeatCount="indefinite" values="1;0"></animate></rect><rect width="8" height="12" x="46" y="24" fill="#6e85b2" rx="4" ry="6" transform="rotate(300 50 50)" class="color9fd18b svgShape"><animate attributeName="opacity" begin="-0.03333333333333333s" dur="0.4s" keyTimes="0;1" repeatCount="indefinite" values="1;0"></animate></rect><rect width="8" height="12" x="46" y="24" fill="#6e85b2" rx="4" ry="6" transform="rotate(330 50 50)" class="color9fd18b svgShape"><animate attributeName="opacity" begin="0s" dur="0.4s" keyTimes="0;1" repeatCount="indefinite" values="1;0"></animate></rect></svg></g></svg>